<svg width="102" height="78" viewBox="0 0 102 78" fill="none" xmlns="http://www.w3.org/2000/svg">
<g clip-path="url(#clip0_41_13)">
<path d="M87.0435 61.5528C83.016 61.7999 79.2178 63.5113 76.3646 66.3646C73.5113 69.2178 71.7999 73.016 71.5528 77.0435H71.4907C71.2439 73.0158 69.5327 69.2175 66.6793 66.3641C63.826 63.5108 60.0277 61.7995 56 61.5528V61.4907C60.0277 61.2439 63.826 59.5327 66.6793 56.6793C69.5327 53.826 71.2439 50.0277 71.4907 46H71.5528C71.7999 50.0275 73.5113 53.8256 76.3646 56.6789C79.2178 59.5321 83.016 61.2435 87.0435 61.4907V61.5528Z" fill="white"/>
</g>
<g clip-path="url(#clip1_41_13)">
<path d="M70.9565 40.4188C61.7508 40.9838 53.0693 44.8956 46.5476 51.4173C40.0259 57.939 36.1142 66.6204 35.5492 75.8261H35.4073C34.8433 66.6201 30.9318 57.9381 24.4099 51.4162C17.8881 44.8943 9.20609 40.9828 0 40.4188L0 40.2769C9.20609 39.7129 17.8881 35.8015 24.4099 29.2796C30.9318 22.7577 34.8433 14.0757 35.4073 4.86963L35.5492 4.86963C36.1142 14.0754 40.0259 22.7568 46.5476 29.2785C53.0693 35.8002 61.7508 39.712 70.9565 40.2769V40.4188Z" fill="white"/>
</g>
<g clip-path="url(#clip2_41_13)">
<path d="M101.783 24.4401C95.4536 24.8285 89.4852 27.5178 85.0015 32.0015C80.5178 36.4852 77.8285 42.4536 77.4401 48.7826H77.3425C76.9548 42.4534 74.2656 36.4846 69.7818 32.0008C65.298 27.517 59.3292 24.8278 53 24.4401V24.3425C59.3292 23.9548 65.298 21.2656 69.7818 16.7818C74.2656 12.298 76.9548 6.32918 77.3425 0L77.4401 0C77.8285 6.32896 80.5178 12.2974 85.0015 16.7811C89.4852 21.2648 95.4536 23.9541 101.783 24.3425V24.4401Z" fill="white"/>
</g>
<defs>
<clipPath id="clip0_41_13">
<rect width="31.0435" height="31.0435" fill="white" transform="translate(56 46)"/>
</clipPath>
<clipPath id="clip1_41_13">
<rect width="70.9565" height="70.9565" fill="white" transform="translate(0 4.86963)"/>
</clipPath>
<clipPath id="clip2_41_13">
<rect width="48.7826" height="48.7826" fill="white" transform="translate(53)"/>
</clipPath>
</defs>
</svg>
